<?xml version="1.0" standalone="no"?>
<!DOCTYPE svg PUBLIC "-//W3C//DTD SVG 20010904//EN"
 "http://www.w3.org/TR/2001/REC-SVG-20010904/DTD/svg10.dtd">
<svg version="1.0" xmlns="http://www.w3.org/2000/svg"
 width="285.000000pt" height="285.000000pt" viewBox="0 0 285.000000 285.000000"
 preserveAspectRatio="xMidYMid meet">
<metadata>
Created by potrace 1.11, written by Peter Selinger 2001-2013
</metadata>
<g transform="translate(0.000000,285.000000) scale(0.100000,-0.100000)"
fill="#000000" stroke="none">
<path d="M748 2843 c376 -2 988 -2 1360 0 372 1 65 2 -683 2 -748 0 -1053 -1
-677 -2z"/>
<path d="M5 1425 c0 -748 1 -1053 2 -677 2 376 2 988 0 1360 -1 372 -2 65 -2
-683z"/>
<path d="M2845 1425 c0 -748 1 -1053 2 -677 2 376 2 988 0 1360 -1 372 -2 65
-2 -683z"/>
<path d="M1315 2674 c-11 -2 -51 -12 -89 -20 -325 -75 -587 -350 -650 -683
-89 -469 223 -926 693 -1015 396 -75 794 136 958 509 53 121 67 195 67 345 0
167 -16 235 -89 385 -89 181 -209 301 -390 390 -60 29 -139 61 -175 70 -62 16
-284 29 -325 19z m517 -674 l246 -5 -193 -140 c-107 -77 -194 -146 -195 -153
0 -7 32 -110 71 -229 38 -118 69 -219 67 -224 -2 -5 -90 54 -197 131 -107 78
-200 139 -206 136 -6 -2 -96 -65 -199 -141 -104 -75 -190 -134 -192 -132 -3 3
74 253 130 424 l14 42 -198 143 -199 143 247 5 247 5 71 216 c39 119 74 224
79 235 5 14 28 -44 84 -216 l77 -235 246 -5z"/>
<path d="M727 899 c-14 -8 -16 -14 -6 -25 6 -8 21 -41 33 -75 l22 -60 -53
-207 c-57 -225 -63 -267 -35 -280 19 -9 78 -1 75 11 -13 41 -11 75 12 199 15
79 31 147 35 151 3 4 12 -12 19 -35 40 -134 109 -208 173 -186 59 21 146 131
194 247 27 66 28 57 9 -114 -17 -153 -19 -269 -5 -296 12 -21 50 -25 80 -9 17
9 17 12 2 53 -15 41 -14 60 12 295 16 139 25 259 22 267 -6 16 -62 21 -83 7
-7 -4 -21 -37 -32 -73 -21 -66 -103 -214 -144 -257 -76 -82 -110 -45 -192 208
-26 80 -54 155 -61 168 -15 24 -47 28 -77 11z"/>
<path d="M1428 588 c-25 -9 -28 -15 -28 -54 0 -40 11 -57 24 -35 15 24 116 18
116 -8 0 -5 -17 -12 -37 -16 -85 -16 -132 -58 -133 -117 0 -76 76 -126 141
-92 23 11 34 13 37 5 2 -6 27 -11 59 -11 l55 0 -7 27 c-4 16 -10 78 -14 140
-8 118 -14 134 -62 159 -32 16 -110 17 -151 2z m112 -197 c0 -54 -51 -77 -66
-29 -7 23 21 58 48 58 13 0 18 -7 18 -29z"/>
<path d="M1737 593 c-4 -3 -7 -80 -7 -170 l0 -163 60 0 60 0 0 105 c0 99 1
105 24 120 13 8 31 13 40 9 14 -5 16 2 16 50 0 55 0 56 -29 56 -19 0 -35 -8
-44 -21 l-15 -21 -7 21 c-5 17 -15 21 -49 21 -23 0 -46 -3 -49 -7z"/>
<path d="M2059 577 c-72 -48 -60 -123 29 -170 28 -16 52 -35 52 -42 0 -25 -45
-28 -89 -6 l-41 21 0 -49 c0 -44 3 -50 28 -59 82 -33 153 -22 197 29 30 36 33
87 7 119 -10 12 -38 32 -63 44 -24 11 -43 26 -42 31 4 17 53 17 79 0 l24 -15
0 50 c0 45 -3 52 -26 60 -46 18 -118 12 -155 -13z"/>
<path d="M748 3 c376 -2 988 -2 1360 0 372 1 65 2 -683 2 -748 0 -1053 -1
-677 -2z"/>
</g>
</svg>
